<svg version="1.1" id="Layer_1" xmlns="http://www.w3.org/2000/svg" xmlns:xlink="http://www.w3.org/1999/xlink" x="0px" y="0px"
	 width="100%" viewBox="0 0 500 500" enable-background="new 0 0 500 500" xml:space="preserve">
<path fill="#000000" opacity="1.000000" stroke="none" 
	d="
M305.000000,501.000000 
	C203.333359,501.000000 102.166718,501.000000 1.000054,501.000000 
	C1.000036,334.333405 1.000036,167.666794 1.000018,1.000144 
	C167.666565,1.000096 334.333130,1.000096 500.999756,1.000048 
	C500.999847,167.666519 500.999847,334.333038 500.999939,500.999786 
	C435.833344,501.000000 370.666656,501.000000 305.000000,501.000000 
M330.529480,357.041992 
	C330.529480,357.041992 330.858002,357.008514 331.483368,357.577179 
	C334.183350,357.750885 336.883331,357.924591 340.140930,358.134186 
	C340.140930,354.906281 340.140930,352.427460 340.140930,348.739624 
	C345.457672,355.359039 350.356384,360.420013 358.393524,357.576691 
	C358.579010,356.564270 358.752411,355.617859 359.818329,355.026489 
	C367.745270,360.908691 375.948547,359.988983 381.029602,352.484161 
	C378.246765,350.773346 376.000427,349.181458 372.263824,351.492065 
	C369.412354,353.255341 365.953461,352.243103 364.500336,347.224243 
	C370.679230,347.224243 376.189392,347.224243 381.684753,347.224243 
	C381.371887,338.789429 377.967865,334.647614 371.268127,333.836517 
	C365.649139,333.156281 361.077972,334.923035 357.954773,339.711304 
	C354.455841,345.075531 355.997070,350.127899 358.475372,355.728882 
	C354.789917,352.514099 351.104431,349.299347 346.236145,345.052826 
	C350.512146,341.385925 354.223206,338.203461 358.011078,334.955139 
	C349.930878,331.799438 345.026428,336.357025 339.682983,342.615234 
	C339.682983,333.425049 339.682983,326.019440 339.682983,318.561646 
	C336.740936,318.561646 334.215424,318.561646 331.364746,318.561646 
	C331.364746,322.736786 331.514740,326.546356 331.302643,330.335663 
	C331.193542,332.284271 330.439117,334.196777 329.767639,335.295654 
	C327.527100,334.759949 325.302246,333.855652 323.042969,333.759338 
	C316.854736,333.495575 311.290009,337.671478 309.950897,343.208588 
	C308.517426,349.135834 311.265228,355.671722 317.236511,357.315918 
	C321.227448,358.414795 325.856873,357.194702 330.529480,357.041992 
M281.424561,337.439240 
	C280.854340,336.285828 280.225586,334.116028 279.723419,334.144928 
	C276.601746,334.324554 273.508423,334.997192 270.062561,335.562561 
	C268.402802,332.241760 264.983429,334.766785 261.775970,334.549927 
	C261.775970,338.754761 261.776001,342.570587 261.776001,346.386383 
	C261.775970,350.155182 261.775970,353.923981 261.775970,357.653503 
	C264.812408,357.653503 267.342926,357.653503 269.978546,357.653503 
	C269.978546,354.810211 269.977539,352.324127 269.978699,349.838043 
	C269.982819,340.869598 271.244751,339.892242 280.681610,342.700195 
	C279.493378,347.994873 280.590942,352.712769 284.861572,356.176819 
	C288.844330,359.407471 293.295410,359.685883 297.843506,357.064362 
	C298.390106,356.749329 299.204895,356.661377 299.838684,356.777466 
	C302.451294,357.255981 305.042023,357.853790 307.609741,358.401123 
	C307.609741,349.696533 307.609741,341.997101 307.609741,333.625031 
	C304.249878,334.301270 300.792633,336.188416 298.664276,335.203644 
	C292.103119,332.167694 287.040222,334.265747 281.424561,337.439240 
M184.349930,338.387634 
	C178.179550,333.099121 170.628723,332.146423 164.635284,335.915955 
	C160.457169,338.543732 158.497192,342.266846 158.888321,347.257141 
	C159.264832,352.060974 161.730591,355.363007 166.018814,357.248322 
	C171.577377,359.692139 177.098587,359.454224 182.144669,355.954559 
	C187.006699,352.582520 187.882828,347.701965 186.655029,342.210602 
	C186.568634,341.824158 186.866409,341.351807 187.722717,340.633850 
	C190.430435,345.591736 192.965820,350.657532 195.958908,355.436676 
	C196.775513,356.740570 198.928528,357.713623 200.543671,357.835022 
	C201.637207,357.917206 203.271072,356.481232 203.946487,355.310669 
	C205.495834,352.625580 206.606506,349.687408 208.216309,346.145660 
	C209.908966,349.865723 211.191269,352.834808 212.602768,355.741150 
	C213.867340,358.344940 218.461761,359.198303 219.793015,356.859772 
	C223.937454,349.579651 227.746948,342.108826 231.831741,334.438934 
	C222.552994,333.895691 222.559509,333.898651 219.075668,341.594604 
	C218.383820,343.122833 217.620621,344.618774 216.637863,346.651917 
	C215.242523,343.611176 214.246613,341.328278 213.154449,339.092407 
	C212.065521,336.863190 211.977417,334.009979 208.082474,334.066254 
	C204.141495,334.123138 204.338135,337.237946 203.155945,339.325134 
	C201.919800,341.507629 201.005997,343.872711 199.739212,346.617493 
	C193.281479,333.351318 193.281479,333.351318 185.667740,334.733185 
	C185.463684,336.071167 185.274292,337.312988 184.349930,338.387634 
M112.814026,256.499939 
	C112.814102,262.663544 112.774399,268.827454 112.824158,274.990631 
	C112.888596,282.971375 115.987389,286.059937 123.993782,286.061096 
	C208.620804,286.073212 293.247833,286.072968 377.874847,286.061768 
	C386.135010,286.060669 389.166351,282.999847 389.169128,274.599945 
	C389.187500,219.459122 389.186737,164.318283 389.170532,109.177460 
	C389.167816,99.944290 386.174500,97.000244 376.985229,97.000145 
	C293.357727,96.999252 209.730026,97.089951 126.103088,96.872894 
	C116.785271,96.848717 112.614868,100.490234 112.674706,110.068924 
	C112.977554,158.544327 112.814041,207.022629 112.814026,256.499939 
M102.689659,352.116364 
	C103.194443,353.214111 103.396774,354.792908 104.253189,355.331390 
	C109.715164,358.765411 115.669350,359.739227 121.919609,357.926880 
	C126.396858,356.628601 129.383530,353.899994 130.237915,349.029877 
	C131.104492,344.090363 129.120850,340.547241 125.143188,338.058990 
	C122.486496,336.397095 119.398949,335.411346 116.792152,333.687592 
	C115.509377,332.839355 114.880005,331.002960 113.954956,329.613770 
	C115.619736,328.830566 117.301674,327.381104 118.945183,327.423462 
	C121.293091,327.483917 123.612862,328.636414 126.117859,329.373505 
	C127.213989,327.144806 128.216354,325.106750 129.772949,321.941803 
	C125.077026,320.939911 121.006065,319.471924 116.892059,319.339264 
	C111.238335,319.156952 106.399734,323.461853 105.275047,328.520874 
	C104.204338,333.337067 106.584259,337.609467 112.051353,340.569244 
	C113.654144,341.436920 115.590729,341.881927 116.896828,343.053131 
	C118.423706,344.422394 119.428284,346.374084 120.659447,348.073059 
	C118.496674,348.844879 116.235664,350.434418 114.195061,350.189301 
	C111.410988,349.854889 108.794838,348.122498 105.888290,346.897430 
	C104.943115,348.407959 103.988014,349.934326 102.689659,352.116364 
M140.521301,322.806213 
	C140.437485,321.352386 140.353683,319.898590 140.270264,318.451752 
	C137.455582,318.451752 135.024185,318.451752 132.421906,318.451752 
	C132.421906,331.748260 132.421906,344.783661 132.421906,357.837402 
	C135.183624,357.837402 137.636719,357.837402 140.525940,357.837402 
	C140.525940,353.864532 140.572983,350.065094 140.512100,346.267395 
	C140.456421,342.794189 141.742371,340.103607 145.463303,340.208466 
	C148.882965,340.304779 149.382492,343.191620 149.355957,346.070435 
	C149.319855,349.987030 149.346954,353.904205 149.346954,357.810730 
	C152.481384,357.810730 154.926071,357.810730 157.781189,357.810730 
	C157.781189,352.493652 157.960815,347.371674 157.729172,342.268341 
	C157.510590,337.452484 154.612518,334.468994 149.926987,334.051392 
	C146.972031,333.788086 143.913345,334.689056 140.521240,335.115540 
	C140.521240,331.643341 140.521240,327.688599 140.521301,322.806213 
M238.897339,327.724823 
	C241.168823,327.724823 243.440308,327.724823 246.202576,327.724823 
	C246.202576,338.087799 246.202576,347.986328 246.202576,357.793762 
	C249.313461,357.793762 251.921631,357.793762 255.011597,357.793762 
	C255.011597,347.676605 255.011597,337.770935 255.011597,327.901947 
	C258.256866,327.748077 261.013031,327.617401 263.683838,327.490784 
	C263.683838,324.755402 263.683838,322.503998 263.683838,320.258606 
	C254.675797,320.258606 245.939972,320.258606 236.615707,320.258606 
	C237.121490,322.973389 237.554871,325.299591 238.897339,327.724823 
M383.118225,353.326233 
	C383.183563,354.778168 383.248901,356.230133 383.315247,357.704712 
	C386.156891,357.704712 388.699768,357.704712 391.521576,357.704712 
	C391.521576,354.748871 391.516113,352.107300 391.522583,349.465759 
	C391.542786,341.211304 392.685486,340.224976 400.861542,341.442505 
	C401.852814,339.428528 402.850433,337.401703 403.994995,335.076324 
	C400.099579,333.246765 397.066742,333.965851 393.357178,335.306305 
	C390.623322,336.294159 386.865631,334.448730 383.118225,333.786957 
	C383.118225,340.753479 383.118225,346.556519 383.118225,353.326233 
z"/>
<path fill="#FEFEFE" opacity="1.000000" stroke="none" 
	d="
M112.814026,255.999939 
	C112.814041,207.022629 112.977554,158.544327 112.674706,110.068924 
	C112.614868,100.490234 116.785271,96.848717 126.103088,96.872894 
	C209.730026,97.089951 293.357727,96.999252 376.985229,97.000145 
	C386.174500,97.000244 389.167816,99.944290 389.170532,109.177460 
	C389.186737,164.318283 389.187500,219.459122 389.169128,274.599945 
	C389.166351,282.999847 386.135010,286.060669 377.874847,286.061768 
	C293.247833,286.072968 208.620804,286.073212 123.993782,286.061096 
	C115.987389,286.059937 112.888596,282.971375 112.824158,274.990631 
	C112.774399,268.827454 112.814102,262.663544 112.814026,255.999939 
M200.615509,264.619781 
	C233.927170,264.619781 267.238831,264.626495 300.550507,264.605316 
	C302.876282,264.603821 305.212158,264.497528 307.525970,264.266418 
	C319.339142,263.086456 327.938019,253.823227 327.969604,241.838425 
	C328.060394,207.361084 328.065674,172.883163 327.968506,138.405853 
	C327.932343,125.587189 318.524536,115.548355 305.830719,115.467453 
	C268.689728,115.230751 231.545578,115.255760 194.404114,115.453300 
	C181.840881,115.520119 172.071716,125.406212 172.034927,137.633575 
	C171.930206,172.443970 171.941681,207.255035 172.041687,242.065445 
	C172.064743,250.094681 175.756363,256.320221 182.406601,260.924774 
	C187.703751,264.592468 193.660095,264.542908 200.615509,264.619781 
M369.343323,115.359787 
	C365.354004,115.360619 361.363983,115.407715 357.375549,115.348602 
	C353.746216,115.294800 351.789642,116.642883 351.928619,120.631638 
	C352.113739,125.944313 352.069092,131.270477 351.942261,136.586548 
	C351.862701,139.922424 353.291351,141.596649 356.595093,141.614212 
	C362.412628,141.645157 368.230347,141.629822 374.048004,141.632370 
	C377.579926,141.633911 379.141174,139.884567 379.040833,136.344452 
	C378.923126,132.192245 379.014130,128.034134 379.013763,123.878578 
	C379.013031,115.476372 378.910217,115.376213 369.343323,115.359787 
M128.297546,141.458725 
	C134.615219,141.515015 140.932785,141.594620 147.250580,141.617828 
	C150.444199,141.629532 152.157043,140.241409 152.070480,136.769196 
	C151.933685,131.282822 151.931488,125.787827 152.073410,120.301682 
	C152.162170,116.871086 150.554672,115.395439 147.321442,115.381706 
	C141.499176,115.356972 135.664398,115.164993 129.862289,115.507576 
	C128.246323,115.602997 125.437485,117.253052 125.372833,118.322693 
	C124.962547,125.110489 125.088806,131.937683 125.272255,138.745590 
	C125.295143,139.594666 126.696571,140.406586 128.297546,141.458725 
M362.605225,182.640228 
	C366.427948,182.637329 370.250702,182.645645 374.073334,182.628067 
	C377.251923,182.613449 379.058228,181.223785 379.026031,177.819107 
	C378.974121,172.334793 378.965485,166.849075 379.030121,161.365021 
	C379.069092,158.059921 377.528778,156.397354 374.254089,156.382797 
	C368.437134,156.356934 362.619934,156.376266 356.802856,156.370361 
	C353.219818,156.366730 351.821259,158.166092 351.932648,161.704514 
	C352.094696,166.851822 352.118073,172.013260 351.928558,177.158661 
	C351.787415,180.991760 353.386566,182.738892 357.164490,182.643494 
	C358.659363,182.605759 360.156067,182.639175 362.605225,182.640228 
M142.351837,182.640228 
	C143.349091,182.640198 144.346481,182.650726 145.343582,182.638428 
	C151.497269,182.562607 152.023468,182.018997 152.033447,175.695343 
	C152.040771,171.041504 151.900177,166.382416 152.079926,161.735504 
	C152.216537,158.204132 150.863922,156.371552 147.263107,156.372559 
	C141.445938,156.374207 135.628677,156.355103 129.811630,156.382431 
	C126.564713,156.397675 124.947624,158.013412 124.978973,161.331146 
	C125.029221,166.649323 125.079216,171.970398 124.957932,177.286346 
	C124.869530,181.161194 126.756233,182.700317 130.426315,182.648773 
	C134.082169,182.597427 137.739334,182.639252 142.351837,182.640228 
M145.298691,238.822601 
	C140.152802,238.823212 135.005447,238.899078 129.861572,238.797668 
	C126.486626,238.731155 124.985596,240.296677 124.996025,243.576385 
	C125.012909,248.888184 125.044945,254.200714 124.977097,259.511749 
	C124.935593,262.759644 126.353523,264.568573 129.657593,264.593506 
	C135.632874,264.638611 141.609116,264.645874 147.584167,264.587280 
	C150.564987,264.558075 152.123962,263.121826 152.056442,259.937897 
	C151.947372,254.794312 151.825638,249.636353 152.089310,244.503998 
	C152.315521,240.101364 150.501312,238.345535 145.298691,238.822601 
M379.007477,248.584106 
	C379.007477,247.588181 379.011078,246.592255 379.006866,245.596344 
	C378.979645,239.147964 378.681213,238.841461 372.232788,238.825241 
	C367.087219,238.812302 361.940002,238.902206 356.796600,238.796539 
	C353.460724,238.728012 351.905426,240.107635 351.959686,243.505325 
	C352.047119,248.981476 352.044983,254.461029 351.959656,259.937256 
	C351.910492,263.091614 353.452515,264.563904 356.449371,264.590057 
	C362.424225,264.642212 368.400024,264.637115 374.375000,264.595459 
	C377.687225,264.572357 379.109558,262.773682 379.025391,259.514038 
	C378.939697,256.196533 379.007111,252.875061 379.007477,248.584106 
M151.206879,198.429352 
	C150.706894,198.006622 150.213547,197.224670 149.705917,197.215286 
	C142.580078,197.083771 135.443115,196.863190 128.334152,197.199341 
	C127.165817,197.254578 125.268402,199.810745 125.166634,201.310074 
	C124.785530,206.924789 124.994316,212.580673 125.013206,218.221024 
	C125.024109,221.477158 126.654900,223.046799 129.956467,223.015228 
	C135.762314,222.959686 141.569153,222.980774 147.375427,223.006363 
	C150.404617,223.019714 152.049850,221.661072 152.012009,218.539703 
	C151.933670,212.078598 151.843445,205.617645 151.206879,198.429352 
M379.000092,217.136353 
	C378.998901,211.991974 378.993256,206.847580 378.998047,201.703201 
	C379.001068,198.444229 377.509491,196.874924 374.127167,196.938080 
	C368.320984,197.046478 362.510193,197.038727 356.703613,196.941864 
	C353.279907,196.884750 351.935089,198.513763 351.973480,201.787811 
	C352.037689,207.263351 352.039795,212.740753 351.973663,218.216248 
	C351.933105,221.574112 353.531128,223.039856 356.818481,223.012512 
	C362.460327,222.965576 368.103943,222.931198 373.744629,223.025162 
	C377.232208,223.083267 379.071259,221.641174 379.000092,217.136353 
z"/>
<path fill="#F6F6F6" opacity="1.000000" stroke="none" 
	d="
M102.861282,351.788544 
	C103.988014,349.934326 104.943115,348.407959 105.888290,346.897430 
	C108.794838,348.122498 111.410988,349.854889 114.195061,350.189301 
	C116.235664,350.434418 118.496674,348.844879 120.659454,348.073059 
	C119.428284,346.374084 118.423706,344.422394 116.896828,343.053131 
	C115.590729,341.881927 113.654144,341.436920 112.051353,340.569244 
	C106.584259,337.609467 104.204338,333.337067 105.275047,328.520874 
	C106.399734,323.461853 111.238335,319.156952 116.892059,319.339264 
	C121.006065,319.471924 125.077026,320.939911 129.772949,321.941803 
	C128.216354,325.106750 127.213989,327.144806 126.117859,329.373505 
	C123.612862,328.636414 121.293091,327.483917 118.945183,327.423462 
	C117.301674,327.381104 115.619736,328.830566 113.954956,329.613770 
	C114.880005,331.002960 115.509377,332.839355 116.792152,333.687592 
	C119.398949,335.411346 122.486496,336.397095 125.143188,338.058990 
	C129.120850,340.547241 131.104492,344.090363 130.237915,349.029877 
	C129.383530,353.899994 126.396858,356.628601 121.919609,357.926880 
	C115.669350,359.739227 109.715164,358.765411 104.253189,355.331390 
	C103.396774,354.792908 103.194443,353.214111 102.861282,351.788544 
z"/>
<path fill="#F4F4F4" opacity="1.000000" stroke="none" 
	d="
M185.084900,338.554810 
	C185.274292,337.312988 185.463684,336.071167 185.667740,334.733185 
	C193.281479,333.351318 193.281479,333.351318 199.739212,346.617493 
	C201.005997,343.872711 201.919800,341.507629 203.155945,339.325134 
	C204.338135,337.237946 204.141495,334.123138 208.082474,334.066254 
	C211.977417,334.009979 212.065521,336.863190 213.154449,339.092407 
	C214.246613,341.328278 215.242523,343.611176 216.637863,346.651917 
	C217.620621,344.618774 218.383820,343.122833 219.075668,341.594604 
	C222.559509,333.898651 222.552994,333.895691 231.831741,334.438934 
	C227.746948,342.108826 223.937454,349.579651 219.793015,356.859772 
	C218.461761,359.198303 213.867340,358.344940 212.602768,355.741150 
	C211.191269,352.834808 209.908966,349.865723 208.216309,346.145660 
	C206.606506,349.687408 205.495834,352.625580 203.946487,355.310669 
	C203.271072,356.481232 201.637207,357.917206 200.543671,357.835022 
	C198.928528,357.713623 196.775513,356.740570 195.958908,355.436676 
	C192.965820,350.657532 190.430435,345.591736 187.371399,340.807434 
	C187.020096,340.981049 187.025421,341.052032 187.310669,340.647461 
	C186.703430,339.650208 185.810974,339.057556 184.969101,338.470764 
	C185.019684,338.476593 185.084900,338.554810 185.084900,338.554810 
z"/>
<path fill="#F0F0F0" opacity="1.000000" stroke="none" 
	d="
M358.925781,354.671478 
	C358.752411,355.617859 358.579010,356.564270 358.393524,357.576691 
	C350.356384,360.420013 345.457672,355.359039 340.140930,348.739624 
	C340.140930,352.427460 340.140930,354.906281 340.140930,358.134186 
	C336.883331,357.924591 334.183350,357.750885 331.337128,356.848450 
	C331.258331,350.462769 331.384766,344.805176 331.327332,339.149475 
	C331.319031,338.333740 330.426483,337.526978 329.937683,336.617065 
	C329.932190,336.518127 329.976318,336.125580 329.976318,336.125580 
	C330.439117,334.196777 331.193542,332.284271 331.302643,330.335663 
	C331.514740,326.546356 331.364746,322.736786 331.364746,318.561646 
	C334.215424,318.561646 336.740936,318.561646 339.682983,318.561646 
	C339.682983,326.019440 339.682983,333.425049 339.682983,342.615234 
	C345.026428,336.357025 349.930878,331.799438 358.011078,334.955139 
	C354.223206,338.203461 350.512146,341.385925 346.236145,345.052826 
	C351.104431,349.299347 354.789917,352.514099 358.824982,355.304138 
	C359.174591,354.879395 358.925781,354.671478 358.925781,354.671478 
z"/>
<path fill="#F3F3F3" opacity="1.000000" stroke="none" 
	d="
M140.521271,323.270020 
	C140.521240,327.688599 140.521240,331.643341 140.521240,335.115540 
	C143.913345,334.689056 146.972031,333.788086 149.926987,334.051392 
	C154.612518,334.468994 157.510590,337.452484 157.729172,342.268341 
	C157.960815,347.371674 157.781189,352.493652 157.781189,357.810730 
	C154.926071,357.810730 152.481384,357.810730 149.346954,357.810730 
	C149.346954,353.904205 149.319855,349.987030 149.355957,346.070435 
	C149.382492,343.191620 148.882965,340.304779 145.463303,340.208466 
	C141.742371,340.103607 140.456421,342.794189 140.512100,346.267395 
	C140.572983,350.065094 140.525940,353.864532 140.525940,357.837402 
	C137.636719,357.837402 135.183624,357.837402 132.421906,357.837402 
	C132.421906,344.783661 132.421906,331.748260 132.421906,318.451752 
	C135.024185,318.451752 137.455582,318.451752 140.270264,318.451752 
	C140.353683,319.898590 140.437485,321.352386 140.521271,323.270020 
z"/>
<path fill="#F7F7F7" opacity="1.000000" stroke="none" 
	d="
M281.985626,338.082153 
	C287.040222,334.265747 292.103119,332.167694 298.664276,335.203644 
	C300.792633,336.188416 304.249878,334.301270 307.609741,333.625031 
	C307.609741,341.997101 307.609741,349.696533 307.609741,358.401123 
	C305.042023,357.853790 302.451294,357.255981 299.838684,356.777466 
	C299.204895,356.661377 298.390106,356.749329 297.843506,357.064362 
	C293.295410,359.685883 288.844330,359.407471 284.861572,356.176819 
	C280.590942,352.712769 279.493378,347.994873 280.354553,342.366760 
	C280.027496,342.033356 279.959869,342.049103 280.341125,342.126099 
	C280.843811,341.445801 280.965271,340.688477 281.063904,339.975098 
	C281.041107,340.019073 280.976105,340.093750 281.327881,339.937744 
	C281.794067,339.166443 281.908508,338.551147 282.020569,337.974182 
	C282.018188,338.012543 281.985626,338.082153 281.985626,338.082153 
M289.004791,346.428741 
	C290.665619,348.177704 292.060242,350.506714 294.095123,351.440704 
	C295.177612,351.937561 298.134155,350.430359 298.859131,349.082458 
	C299.698151,347.522522 299.666077,344.773529 298.791992,343.233093 
	C298.048096,341.922058 295.198303,340.593506 293.950256,341.061127 
	C292.009918,341.788116 290.638062,344.032349 289.004791,346.428741 
z"/>
<path fill="#F6F6F6" opacity="1.000000" stroke="none" 
	d="
M184.717407,338.471222 
	C185.084900,338.554810 185.019684,338.476593 185.029205,338.855103 
	C185.700958,339.839752 186.363190,340.445892 187.025421,341.052032 
	C187.025421,341.052032 187.020096,340.981049 187.002838,340.950226 
	C186.866409,341.351807 186.568634,341.824158 186.655029,342.210602 
	C187.882828,347.701965 187.006699,352.582520 182.144669,355.954559 
	C177.098587,359.454224 171.577377,359.692139 166.018814,357.248322 
	C161.730591,355.363007 159.264832,352.060974 158.888321,347.257141 
	C158.497192,342.266846 160.457169,338.543732 164.635284,335.915955 
	C170.628723,332.146423 178.179550,333.099121 184.717407,338.471222 
M167.627945,346.414459 
	C167.900803,350.105927 170.173645,352.223175 173.529205,351.426422 
	C175.384308,350.985931 177.979568,348.305634 177.951599,346.674255 
	C177.918137,344.721832 175.811279,341.787567 173.939346,341.109802 
	C170.699722,339.936798 168.215637,341.890533 167.627945,346.414459 
z"/>
<path fill="#F6F6F6" opacity="1.000000" stroke="none" 
	d="
M238.442810,327.675293 
	C237.554871,325.299591 237.121490,322.973389 236.615707,320.258606 
	C245.939972,320.258606 254.675797,320.258606 263.683838,320.258606 
	C263.683838,322.503998 263.683838,324.755402 263.683838,327.490784 
	C261.013031,327.617401 258.256866,327.748077 255.011597,327.901947 
	C255.011597,337.770935 255.011597,347.676605 255.011597,357.793762 
	C251.921631,357.793762 249.313461,357.793762 246.202576,357.793762 
	C246.202576,347.986328 246.202576,338.087799 246.202576,327.724823 
	C243.440308,327.724823 241.168823,327.724823 238.442810,327.675293 
z"/>
<path fill="#F5F5F5" opacity="1.000000" stroke="none" 
	d="
M359.372070,354.848999 
	C358.925781,354.671478 359.174591,354.879395 359.220734,354.926392 
	C355.997070,350.127899 354.455841,345.075531 357.954773,339.711304 
	C361.077972,334.923035 365.649139,333.156281 371.268127,333.836517 
	C377.967865,334.647614 381.371887,338.789429 381.684753,347.224243 
	C376.189392,347.224243 370.679230,347.224243 364.500336,347.224243 
	C365.953461,352.243103 369.412354,353.255341 372.263824,351.492065 
	C376.000427,349.181458 378.246765,350.773346 381.029602,352.484161 
	C375.948547,359.988983 367.745270,360.908691 359.372070,354.848999 
M368.717865,338.985474 
	C367.386078,339.855804 366.054291,340.726166 364.722504,341.596527 
	C364.891876,341.915680 365.061249,342.234863 365.230652,342.554047 
	C367.853485,342.554047 370.476349,342.554047 373.099182,342.554047 
	C373.260986,342.190063 373.422791,341.826111 373.584595,341.462128 
	C372.235474,340.636047 370.886322,339.809967 368.717865,338.985474 
z"/>
<path fill="#F5F5F5" opacity="1.000000" stroke="none" 
	d="
M329.871979,335.710632 
	C329.976318,336.125580 329.932190,336.518127 329.895447,336.990356 
	C328.885895,339.911621 327.915283,341.409027 324.466583,340.623138 
	C320.892761,339.808655 318.574402,342.411743 318.297852,346.095062 
	C318.037628,349.560242 321.082458,352.178375 324.790710,351.908722 
	C325.861053,351.830902 326.912781,351.497253 328.299469,351.214294 
	C328.989349,353.318390 329.594940,355.165405 330.200562,357.012390 
	C325.856873,357.194702 321.227448,358.414795 317.236511,357.315918 
	C311.265228,355.671722 308.517426,349.135834 309.950897,343.208588 
	C311.290009,337.671478 316.854736,333.495575 323.042969,333.759338 
	C325.302246,333.855652 327.527100,334.759949 329.871979,335.710632 
z"/>
<path fill="#F3F3F3" opacity="1.000000" stroke="none" 
	d="
M383.118225,352.842896 
	C383.118225,346.556519 383.118225,340.753479 383.118225,333.786957 
	C386.865631,334.448730 390.623322,336.294159 393.357178,335.306305 
	C397.066742,333.965851 400.099579,333.246765 403.994995,335.076324 
	C402.850433,337.401703 401.852814,339.428528 400.861542,341.442505 
	C392.685486,340.224976 391.542786,341.211304 391.522583,349.465759 
	C391.516113,352.107300 391.521576,354.748871 391.521576,357.704712 
	C388.699768,357.704712 386.156891,357.704712 383.315247,357.704712 
	C383.248901,356.230133 383.183563,354.778168 383.118225,352.842896 
z"/>
<path fill="#F9F9F9" opacity="1.000000" stroke="none" 
	d="
M280.059082,342.018921 
	C271.244751,339.892242 269.982819,340.869598 269.978699,349.838043 
	C269.977539,352.324127 269.978546,354.810211 269.978546,357.653503 
	C267.342926,357.653503 264.812408,357.653503 261.775970,357.653503 
	C261.775970,353.923981 261.775970,350.155182 261.776001,346.386383 
	C261.776001,342.570587 261.775970,338.754761 261.775970,334.549927 
	C264.983429,334.766785 268.402802,332.241760 270.062561,335.562561 
	C273.508423,334.997192 276.601746,334.324554 279.723419,334.144928 
	C280.225586,334.116028 280.854340,336.285828 281.705078,337.760681 
	C281.985626,338.082153 282.018188,338.012543 281.598297,337.966888 
	C281.110962,338.645416 281.043518,339.369568 280.976105,340.093750 
	C280.976105,340.093750 281.041107,340.019073 280.641571,339.916748 
	C280.147980,340.559326 280.053925,341.304199 279.959869,342.049103 
	C279.959869,342.049103 280.027496,342.033356 280.059082,342.018921 
z"/>
<path fill="#0A0A0A" opacity="1.000000" stroke="none" 
	d="
M330.364990,357.027191 
	C329.594940,355.165405 328.989349,353.318390 328.299469,351.214294 
	C326.912781,351.497253 325.861053,351.830902 324.790710,351.908722 
	C321.082458,352.178375 318.037628,349.560242 318.297852,346.095062 
	C318.574402,342.411743 320.892761,339.808655 324.466583,340.623138 
	C327.915283,341.409027 328.885895,339.911621 329.900940,337.089294 
	C330.426483,337.526978 331.319031,338.333740 331.327332,339.149475 
	C331.384766,344.805176 331.258331,350.462769 331.024445,356.564148 
	C330.858002,357.008514 330.529480,357.041992 330.364990,357.027191 
z"/>
<path fill="#020202" opacity="1.000000" stroke="none" 
	d="
M200.134628,264.619751 
	C193.660095,264.542908 187.703751,264.592468 182.406601,260.924774 
	C175.756363,256.320221 172.064743,250.094681 172.041687,242.065445 
	C171.941681,207.255035 171.930206,172.443970 172.034927,137.633575 
	C172.071716,125.406212 181.840881,115.520119 194.404114,115.453300 
	C231.545578,115.255760 268.689728,115.230751 305.830719,115.467453 
	C318.524536,115.548355 327.932343,125.587189 327.968506,138.405853 
	C328.065674,172.883163 328.060394,207.361084 327.969604,241.838425 
	C327.938019,253.823227 319.339142,263.086456 307.525970,264.266418 
	C305.212158,264.497528 302.876282,264.603821 300.550507,264.605316 
	C267.238831,264.626495 233.927170,264.619781 200.134628,264.619751 
M250.415955,164.077759 
	C244.349518,160.632217 238.329880,157.100830 232.205353,153.761826 
	C223.597046,149.068680 216.335159,153.238251 216.279160,163.054367 
	C216.158569,184.191437 216.151459,205.330200 216.281601,226.467163 
	C216.342361,236.335205 223.651199,240.583664 232.213516,235.756439 
	C250.735565,225.314148 269.192322,214.754791 287.611694,204.132248 
	C296.528931,198.989624 296.405609,190.346359 287.417725,185.177322 
	C275.322205,178.221024 263.172333,171.359100 250.415955,164.077759 
z"/>
<path fill="#080808" opacity="1.000000" stroke="none" 
	d="
M369.815338,115.359795 
	C378.910217,115.376213 379.013031,115.476372 379.013763,123.878578 
	C379.014130,128.034134 378.923126,132.192245 379.040833,136.344452 
	C379.141174,139.884567 377.579926,141.633911 374.048004,141.632370 
	C368.230347,141.629822 362.412628,141.645157 356.595093,141.614212 
	C353.291351,141.596649 351.862701,139.922424 351.942261,136.586548 
	C352.069092,131.270477 352.113739,125.944313 351.928619,120.631638 
	C351.789642,116.642883 353.746216,115.294800 357.375549,115.348602 
	C361.363983,115.407715 365.354004,115.360619 369.815338,115.359795 
z"/>
<path fill="#080808" opacity="1.000000" stroke="none" 
	d="
M127.878403,141.347229 
	C126.696571,140.406586 125.295143,139.594666 125.272255,138.745590 
	C125.088806,131.937683 124.962547,125.110489 125.372833,118.322693 
	C125.437485,117.253052 128.246323,115.602997 129.862289,115.507576 
	C135.664398,115.164993 141.499176,115.356972 147.321442,115.381706 
	C150.554672,115.395439 152.162170,116.871086 152.073410,120.301682 
	C151.931488,125.787827 151.933685,131.282822 152.070480,136.769196 
	C152.157043,140.241409 150.444199,141.629532 147.250580,141.617828 
	C140.932785,141.594620 134.615219,141.515015 127.878403,141.347229 
z"/>
<path fill="#080808" opacity="1.000000" stroke="none" 
	d="
M362.128571,182.640213 
	C360.156067,182.639175 358.659363,182.605759 357.164490,182.643494 
	C353.386566,182.738892 351.787415,180.991760 351.928558,177.158661 
	C352.118073,172.013260 352.094696,166.851822 351.932648,161.704514 
	C351.821259,158.166092 353.219818,156.366730 356.802856,156.370361 
	C362.619934,156.376266 368.437134,156.356934 374.254089,156.382797 
	C377.528778,156.397354 379.069092,158.059921 379.030121,161.365021 
	C378.965485,166.849075 378.974121,172.334793 379.026031,177.819107 
	C379.058228,181.223785 377.251923,182.613449 374.073334,182.628067 
	C370.250702,182.645645 366.427948,182.637329 362.128571,182.640213 
z"/>
<path fill="#080808" opacity="1.000000" stroke="none" 
	d="
M141.873886,182.640213 
	C137.739334,182.639252 134.082169,182.597427 130.426315,182.648773 
	C126.756233,182.700317 124.869530,181.161194 124.957932,177.286346 
	C125.079216,171.970398 125.029221,166.649323 124.978973,161.331146 
	C124.947624,158.013412 126.564713,156.397675 129.811630,156.382431 
	C135.628677,156.355103 141.445938,156.374207 147.263107,156.372559 
	C150.863922,156.371552 152.216537,158.204132 152.079926,161.735504 
	C151.900177,166.382416 152.040771,171.041504 152.033447,175.695343 
	C152.023468,182.018997 151.497269,182.562607 145.343582,182.638428 
	C144.346481,182.650726 143.349091,182.640198 141.873886,182.640213 
z"/>
<path fill="#040404" opacity="1.000000" stroke="none" 
	d="
M145.772644,238.822723 
	C150.501312,238.345535 152.315521,240.101364 152.089310,244.503998 
	C151.825638,249.636353 151.947372,254.794312 152.056442,259.937897 
	C152.123962,263.121826 150.564987,264.558075 147.584167,264.587280 
	C141.609116,264.645874 135.632874,264.638611 129.657593,264.593506 
	C126.353523,264.568573 124.935593,262.759644 124.977097,259.511749 
	C125.044945,254.200714 125.012909,248.888184 124.996025,243.576385 
	C124.985596,240.296677 126.486626,238.731155 129.861572,238.797668 
	C135.005447,238.899078 140.152802,238.823212 145.772644,238.822723 
z"/>
<path fill="#040404" opacity="1.000000" stroke="none" 
	d="
M379.007477,249.069717 
	C379.007111,252.875061 378.939697,256.196533 379.025391,259.514038 
	C379.109558,262.773682 377.687225,264.572357 374.375000,264.595459 
	C368.400024,264.637115 362.424225,264.642212 356.449371,264.590057 
	C353.452515,264.563904 351.910492,263.091614 351.959656,259.937256 
	C352.044983,254.461029 352.047119,248.981476 351.959686,243.505325 
	C351.905426,240.107635 353.460724,238.728012 356.796600,238.796539 
	C361.940002,238.902206 367.087219,238.812302 372.232788,238.825241 
	C378.681213,238.841461 378.979645,239.147964 379.006866,245.596344 
	C379.011078,246.592255 379.007477,247.588181 379.007477,249.069717 
z"/>
<path fill="#010101" opacity="1.000000" stroke="none" 
	d="
M151.482483,198.792999 
	C151.843445,205.617645 151.933670,212.078598 152.012009,218.539703 
	C152.049850,221.661072 150.404617,223.019714 147.375427,223.006363 
	C141.569153,222.980774 135.762314,222.959686 129.956467,223.015228 
	C126.654900,223.046799 125.024109,221.477158 125.013206,218.221024 
	C124.994316,212.580673 124.785530,206.924789 125.166634,201.310074 
	C125.268402,199.810745 127.165817,197.254578 128.334152,197.199341 
	C135.443115,196.863190 142.580078,197.083771 149.705917,197.215286 
	C150.213547,197.224670 150.706894,198.006622 151.482483,198.792999 
z"/>
<path fill="#010101" opacity="1.000000" stroke="none" 
	d="
M378.999634,217.595856 
	C379.071259,221.641174 377.232208,223.083267 373.744629,223.025162 
	C368.103943,222.931198 362.460327,222.965576 356.818481,223.012512 
	C353.531128,223.039856 351.933105,221.574112 351.973663,218.216248 
	C352.039795,212.740753 352.037689,207.263351 351.973480,201.787811 
	C351.935089,198.513763 353.279907,196.884750 356.703613,196.941864 
	C362.510193,197.038727 368.320984,197.046478 374.127167,196.938080 
	C377.509491,196.874924 379.001068,198.444229 378.998047,201.703201 
	C378.993256,206.847580 378.998901,211.991974 378.999634,217.595856 
z"/>
<path fill="#000000" opacity="1.000000" stroke="none" 
	d="
M187.310669,340.647461 
	C186.363190,340.445892 185.700958,339.839752 184.978607,338.849243 
	C185.810974,339.057556 186.703430,339.650208 187.310669,340.647461 
z"/>
<path fill="#0A0A0A" opacity="1.000000" stroke="none" 
	d="
M289.015015,346.031097 
	C290.638062,344.032349 292.009918,341.788116 293.950256,341.061127 
	C295.198303,340.593506 298.048096,341.922058 298.791992,343.233093 
	C299.666077,344.773529 299.698151,347.522522 298.859131,349.082458 
	C298.134155,350.430359 295.177612,351.937561 294.095123,351.440704 
	C292.060242,350.506714 290.665619,348.177704 289.015015,346.031097 
z"/>
<path fill="#000000" opacity="1.000000" stroke="none" 
	d="
M281.327881,339.937744 
	C281.043518,339.369568 281.110962,338.645416 281.600647,337.928528 
	C281.908508,338.551147 281.794067,339.166443 281.327881,339.937744 
z"/>
<path fill="#000000" opacity="1.000000" stroke="none" 
	d="
M280.341125,342.126099 
	C280.053925,341.304199 280.147980,340.559326 280.664368,339.872803 
	C280.965271,340.688477 280.843811,341.445801 280.341125,342.126099 
z"/>
<path fill="#080808" opacity="1.000000" stroke="none" 
	d="
M167.643570,345.995056 
	C168.215637,341.890533 170.699722,339.936798 173.939346,341.109802 
	C175.811279,341.787567 177.918137,344.721832 177.951599,346.674255 
	C177.979568,348.305634 175.384308,350.985931 173.529205,351.426422 
	C170.173645,352.223175 167.900803,350.105927 167.643570,345.995056 
z"/>
<path fill="#222222" opacity="1.000000" stroke="none" 
	d="
M369.127533,338.984680 
	C370.886322,339.809967 372.235474,340.636047 373.584595,341.462128 
	C373.422791,341.826111 373.260986,342.190063 373.099182,342.554047 
	C370.476349,342.554047 367.853485,342.554047 365.230652,342.554047 
	C365.061249,342.234863 364.891876,341.915680 364.722504,341.596527 
	C366.054291,340.726166 367.386078,339.855804 369.127533,338.984680 
z"/>
<path fill="#5BDFE4" opacity="1.000000" stroke="none" 
	d="
M250.730865,164.267212 
	C263.172333,171.359100 275.322205,178.221024 287.417725,185.177322 
	C296.405609,190.346359 296.528931,198.989624 287.611694,204.132248 
	C269.192322,214.754791 250.735565,225.314148 232.213516,235.756439 
	C223.651199,240.583664 216.342361,236.335205 216.281601,226.467163 
	C216.151459,205.330200 216.158569,184.191437 216.279160,163.054367 
	C216.335159,153.238251 223.597046,149.068680 232.205353,153.761826 
	C238.329880,157.100830 244.349518,160.632217 250.730865,164.267212 
z"/>
</svg>